# xmcd
# Copyright (C) 1995-1998 Ti Kan
#
# Track frame offsets:
#       150
#       29867
#       47812
#       65745
#       91070
#       115925
#       132422
#       151112
#       180135
#       199867
#       220965
#       246787
#
# Disc length: 3497 seconds
#
# Revision: 0
# Processed by: cddbd v1.5.2PL0 Copyright (c) Steve Scherf et al.
# Submitted via: CD-Import v1.0
#
DISCID=a80da70c
DTITLE=Edwyn Collins - Gorgeous George
DYEAR=1994
DGENRE=
TTITLE0=The Campaign For Real Rock
TTITLE1=A Girl Like You
TTITLE2=Low Expectations
TTITLE3=Out Of This World
TTITLE4=If You Could Love Me
TTITLE5=North Of Heaven
TTITLE6=Gorgeous George
TTITLE7=It's Right In Front Of You
TTITLE8=Make Me Feel Again
TTITLE9=I've Got It Bad
TTITLE10=Subsidence
TTITLE11=Moron
EXTD=
EXTT0=
EXTT1=
EXTT2=
EXTT3=
EXTT4=
EXTT5=
EXTT6=
EXTT7=
EXTT8=
EXTT9=
EXTT10=
EXTT11=
PLAYORDER=
